<?xml version="1.0" encoding="UTF-8"?>
<svg width="600px" height="600px" viewBox="0 0 600 600" version="1.1" xmlns="http://www.w3.org/2000/svg" xmlns:xlink="http://www.w3.org/1999/xlink">
    <!-- Generator: Sketch 52.1 (67048) - http://www.bohemiancoding.com/sketch -->
    <title>Site icon</title>
    <desc>Created with Sketch.</desc>
    <g id="Site-icon" stroke="none" stroke-width="1" fill="none" fill-rule="evenodd">
        <g id="me" transform="translate(71.000000, 51.000000)">
            <g id="faccia3_v1_blu" transform="translate(2.000000, 0.000000)">
                <g id="faccia3" transform="translate(41.000000, 22.000000)">
                    <g id="Morbido">
                        <path d="M70.6847602,321.788828 L59.578907,261.156028 C59.2582666,259.405482 59.0243612,257.640154 58.8780468,255.866508 L52.5321158,178.940149 L59.0976524,98.032734 L248.860796,36.0914698 L321.46684,144.005137 L321.46684,185.472987 L321.46684,251.504576 C321.46684,254.326 321.280268,257.144338 320.908344,259.941142 L312.683726,321.788828" id="faccia" stroke="#2F3640" stroke-width="5" fill="#FDCB91"></path>
                        <path d="M307.38251,247.710184 C309.438046,284.064852 295.161286,304.805984 264.552228,309.93358 C261.07779,310.515614 237.620196,307.242942 234.017384,302.242184 C229.05174,295.349798 230.307238,285.493142 225.195216,281.146168" id="ombra-occhio-dx" stroke="#F9A45B" stroke-width="3"></path>
                        <path d="M84.7137358,291.147268 C104.98702,315.896164 131.005513,316.64117 162.769215,293.382286 C168.397302,289.261134 170.792746,284.961802 172.80075,280.69722 C175.904374,274.105774 178.212178,267.408784 179.883202,262.984174 C181.925584,257.576266 180.172231,253.02897 174.623142,249.342286" id="ombra-occhio-sx" stroke="#F9A45B" stroke-width="3"></path>
                        <path d="M219.96321,212.541314 L219.96321,206.448224 C219.96321,204.437184 220.97071,202.55988 222.646576,201.448232 L228.290642,197.704366 C229.60155,196.834804 231.13973,196.371024 232.71282,196.371024 L277.53519,196.371024 C279.681344,196.371024 281.770562,197.06148 283.49407,198.340348 L299.762712,210.411918 C301.579108,211.759712 302.650066,213.88796 302.650066,216.149782 C302.650066,217.263558 301.747172,218.166452 300.633396,218.166452 C300.262388,218.166452 299.898572,218.064106 299.58198,217.870678 L286.783586,210.051232 C284.682902,208.767776 282.182618,208.304274 279.761476,208.749474 L227.0483,218.442382 C223.78923,219.04166 220.661422,216.885472 220.062144,213.626404 C219.996326,213.268456 219.96321,212.905264 219.96321,212.541314 Z" id="sopr-dx" fill="#2F3640"></path>
                        <path d="M82.0451806,219.620284 L113.433136,215.907766 C118.139342,215.351124 122.894924,215.354004 127.600452,215.916346 L155.578914,219.259958 C157.772445,219.5221 159.763161,217.9564 160.025302,215.762868 C160.111981,215.037558 159.998392,214.30236 159.696855,213.63703 L154.395493,201.939756 C153.36577,199.667708 151.037683,198.269788 148.548251,198.42873 L94.0245514,201.90991 C90.7646356,202.118046 87.8118632,203.905244 86.1156338,206.69687 L80.101043,216.595584 C79.5274712,217.53956 79.8277424,218.769774 80.7717176,219.343346 C81.15338,219.57525 81.601679,219.67274 82.0451806,219.620284 Z" id="sopr-sx" fill="#2F3640"></path>
                        <path d="M302.875672,203.593614 L292.455296,159.225142 C291.104834,153.47507 288.27972,148.175993 284.258252,143.849923 L258.556146,116.201026 C255.52904,112.944633 251.28346,111.094644 246.837398,111.094644 L180.772125,111.094644 C175.940337,111.094644 171.157991,112.067304 166.710064,113.954662 L87.6540522,147.499957 C83.111393,149.427512 79.2110828,152.608023 76.4088372,156.669875 L70.6518272,165.014655 C67.6568866,169.355818 66.0529752,174.505141 66.0529752,179.779169 L66.0529752,200.078 C66.0529752,208.348144 62.851151,216.297134 57.118826,222.258318 L56.0797712,223.338858 L56.0797712,129.293877 L149.22373,85.4337552 L235.169748,85.4337552 L285.973528,116.234203 L313.570916,163.896599 L315.88997,208.204056 L313.88897,209.085572 C309.845654,210.866804 305.123926,209.033024 303.342694,204.98971 C303.144442,204.539688 302.988108,204.072344 302.875672,203.593614 Z" id="ombra-fronte" fill="#F9A45B"></path>
                        <path d="M307.230568,211.777766 L316.95428,217.035278 C318.655322,217.955014 320.770746,217.526172 321.979314,216.016596 L330.892012,204.884094 C331.743978,203.81994 332.208174,202.49739 332.208174,201.134206 L332.208174,155.652072 C332.208174,153.899607 331.87915,152.162721 331.2382,150.531675 L306.950568,88.726227 C306.019086,86.3558596 304.80796,84.1051686 303.342896,82.0219292 L272.082094,37.5708052 C269.895284,34.461284 266.867558,32.0393994 263.353674,30.5889242 L190.866363,0.6673124 C189.845359,0.245858 188.676015,0.7318893 188.254561,1.75289368 C187.978048,2.4227646 188.085537,3.18980796 188.535526,3.75787142 L194.688081,11.5248241 C195.373945,12.3906556 195.228052,13.6485534 194.362221,14.3344176 C193.930742,14.6762119 193.377467,14.825062 192.832736,14.7459022 L124.0062,4.74407834 C121.820024,4.42638476 119.790237,5.94108914 119.472543,8.12726522 C119.284614,9.42047812 119.740239,10.7239501 120.692886,11.618478 L131.07811,21.3701164 C131.883335,22.126216 131.92316,23.3919196 131.16706,24.1971446 C130.859588,24.5245938 130.450838,24.7390064 130.006659,24.8058418 L83.3500242,31.826222 C80.0732032,32.3192822 77.8165192,35.3753748 78.3095794,38.6521958 C78.3383594,38.8434642 78.3763714,39.033229 78.4234824,39.2208256 L81.4093146,51.1104796 C81.9473852,53.2530892 80.6466494,55.4262096 78.50404,55.9642802 C77.9409906,56.105678 77.3539108,56.1228224 76.7835696,56.014523 L52.3819106,51.381007 C47.9865492,50.5463926 43.4425134,51.590167 39.8519398,54.2591676 L2.84930572,81.7645354 C0.28961234,83.667246 -0.33414798,87.2400254 1.42939416,89.8975162 L14.2493515,109.215976 C15.4708656,111.056682 14.9689114,113.539102 13.1282055,114.760616 C12.4726135,115.195675 11.7032729,115.427723 10.9164585,115.427723 L7.85535932,115.427723 C5.64622032,115.427723 3.85535932,117.218584 3.85535932,119.427723 C3.85535932,120.479831 4.26987604,121.489577 5.00911166,122.238217 L42.6011864,160.308525 C44.4492754,162.180124 45.4855672,164.704489 45.4855672,167.334758 L45.4855672,213.78292 C45.4855672,216.758904 47.1374976,219.488924 49.7737694,220.869706 L51.9320108,222.000114 C54.3181082,223.249864 57.2446204,222.756324 59.0888774,220.79315 L65.158665,214.331986 C67.2489928,212.106874 68.412629,209.168694 68.412629,206.11573 L68.412629,164.938732 C68.412629,163.821531 68.724549,162.726519 69.3132608,161.777017 L79.8557914,144.773511 C81.866034,141.531293 84.7616134,138.931632 88.2009582,137.281191 L165.485823,100.194445 C169.806526,98.1210662 174.537758,97.0446376 179.330187,97.0446376 L252.143844,97.0446376 C254.483078,97.0446376 256.70512,98.06848 258.225034,99.8466458 L290.291982,137.362141 C291.661862,138.964779 292.585328,140.900044 292.9694,142.973087 L305.199974,208.98784 C305.420282,210.176962 306.166754,211.202572 307.230568,211.777766 Z" id="capelli" fill="#2F3640"></path>
                    </g>
                    <g id="lenti" transform="translate(61.000000, 223.000000)">
                        <polygon id="lente-dx" fill="#8BC4FF" points="147.414767 21.1210904 163.147198 7.1097589 218.38482 4.5342283 234.886016 9.6074117 245.623142 28.0499908 234.886016 68.1848792 218.38482 81.0981336 196.518954 83.6169246 169.534291 76.4499406 157.466568 65.5848728 147.414767 47.9310846"></polygon>
                        <polygon id="lente-sx" fill="#8BC4FF" transform="translate(62.518954, 44.075576) scale(-1, 1) translate(-62.518954, -44.075576) " points="13.414767 21.1210904 29.1471983 7.1097589 84.3848201 4.5342283 100.886017 9.6074117 111.623142 28.0499908 100.886017 68.1848792 84.3848201 81.0981336 62.5189545 83.6169246 35.5342915 76.4499406 23.4665679 65.5848728 13.414767 47.9310846"></polygon>
                        <path d="M157.234058,66.9482998 C199.29265,94.6030908 227.515602,86.7494744 241.902912,43.3874502 C249.706658,19.8676803 229.788846,60.3324832 212.520462,66.9482998 C202.808244,70.6692182 184.379443,70.6692182 157.234058,66.9482998 Z" id="ombra-lente-dx" fill="#4A90E2"></path>
                        <path d="M27.1327628,71.6738734 C58.2194952,90.092698 83.9896362,85.4568536 104.443186,57.7663402 C119.33603,37.6040454 100.161939,54.026974 66.0416438,68.141827 C57.5483964,71.655306 44.5787694,72.8326548 27.1327628,71.6738734 Z" id="ombra-lente-sx" fill="#4A90E2"></path>
                        <g id="occhiali" fill="#2F3640" fill-rule="nonzero">
                            <g id="Group" transform="translate(128.200000, 43.000000) scale(-1, 1) rotate(-180.000000) translate(-128.200000, -43.000000) translate(0.200000, 0.000000)">
                                <path d="M10.8,84.2 C0.8,83 0.8,83 0.2,75 C-0.4,69.4 0.4,66.4 2.8,64.8 C4.6,63.4 8.2,54 10.8,42.8 C16.8,19.2 22.4,10 34.8,4 C42.8,0.2 46.4,-0.4 60.6,0.4 C90.6,2 106.4,13.6 116.8,42.2 C121.8,56 125.8,60.2 131,57 C132.8,55.8 136.4,49.2 138.8,42.2 C149.2,13.6 165,2 195,0.4 C225,-1.2 236.2,8.2 244.8,42.8 C247.4,54 251,63.4 252.8,64.8 C255.2,66.4 256,69.4 255.4,75 L254.8,83 L240.8,84.6 C233.2,85.6 213.4,86 196.8,85.4 C170.6,84.8 164.8,84 151.6,79.4 C132.6,72.6 123,72.6 104,79.4 C90,84.2 86,84.8 54.8,85.2 C36.2,85.4 16.4,85 10.8,84.2 Z M88.8,75.8 C102.2,72.4 106.8,66.2 106.8,51.4 C106.6,40.6 105.8,37.6 99.8,28.4 C91.6,16 82,10.6 64.4,8.8 C37,5.8 21.6,19.4 18.6,49.4 C17.4,60 17.8,61.6 22.6,67.4 C25.6,70.8 31,74.4 35.4,75.6 C45.6,78.4 78.2,78.4 88.8,75.8 Z M219,75.8 C224.6,74.4 229.8,71.2 233,67.4 C237.6,61.8 238.2,59.8 237.2,50.6 C236.6,44.8 233.8,35 231,29 C223,11.4 209.4,5.6 186.2,9.6 C161.8,13.8 149.2,27.8 149,51.4 C148.8,65.8 153.4,72.4 165.6,75.6 C175.8,78.4 208.2,78.4 219,75.8 Z" id="Shape"></path>
                            </g>
                        </g>
                    </g>
                    <path d="M67,233 L79,233 L79,237 L67,237 L67,233 Z M299,233 L311,233 L311,237 L299,237 L299,233 Z" id="Combined-Shape" fill="#8A8A8A" fill-rule="nonzero"></path>
                </g>
            </g>
            <path d="M40.5,496 L420.5,496 L40.5,496 Z M23.5,496 L31.5,496 L23.5,496 Z M0.5,496 L15,496 L0.5,496 Z M431.5,496 L457,496 L431.5,496 Z" id="Combined-Shape" stroke="#2F3640" stroke-width="5" stroke-linecap="square" fill-rule="nonzero"></path>
            <rect id="macbook" stroke="#2F3640" stroke-width="5" fill="#DFDFDF" fill-rule="nonzero" x="62.5" y="299.5" width="333" height="196" rx="14"></rect>
            <circle id="logo" stroke="#2F3640" stroke-width="5" fill="#F0F0F0" fill-rule="nonzero" cx="229" cy="399" r="24"></circle>
        </g>
        <g id="Bg-elements" transform="translate(42.000000, 17.000000)" fill-rule="nonzero">
            <g id="Ovali">
                <circle id="Oval" fill="#D8D8D8" cx="470.5" cy="231.5" r="8.5"></circle>
                <circle id="Oval" fill="#F5F5F5" cx="18.5" cy="331.5" r="14.5"></circle>
                <circle id="Oval" fill="#F5F5F5" cx="497" cy="44" r="44"></circle>
                <circle id="Oval" fill="#F5F5F5" cx="428" cy="78" r="25"></circle>
                <circle id="Oval" fill="#F5F5F5" cx="476" cy="463" r="11"></circle>
                <circle id="Oval" stroke="#BBBBBB" stroke-width="5" cx="14.5" cy="351.5" r="14.5"></circle>
                <circle id="Oval" stroke="#BBBBBB" stroke-width="5" cx="35" cy="325" r="6"></circle>
            </g>
            <g id="X-dx" transform="translate(453.000000, 215.000000)" stroke="#979797" stroke-linecap="round" stroke-width="5">
                <path d="M18,7.03125 L-2,7.96875" id="Line-2" transform="translate(8.000000, 7.500000) rotate(45.000000) translate(-8.000000, -7.500000) "></path>
                <path d="M18,7.03125 L-2,7.96875" id="Line-2-Copy" transform="translate(8.000000, 7.500000) scale(-1, 1) rotate(45.000000) translate(-8.000000, -7.500000) "></path>
            </g>
            <g id="X-sx" transform="translate(7.000000, 33.000000)" stroke="#BBBBBB" stroke-linecap="round" stroke-width="5">
                <path d="M26,10 L-3,12" id="Line-2" transform="translate(11.500000, 11.000000) rotate(45.000000) translate(-11.500000, -11.000000) "></path>
                <path d="M26,10 L-3,12" id="Line-2-Copy" transform="translate(11.500000, 11.000000) scale(-1, 1) rotate(45.000000) translate(-11.500000, -11.000000) "></path>
            </g>
            <polygon id="Triangle" stroke="#BBBBBB" stroke-width="5" stroke-linecap="round" stroke-linejoin="round" transform="translate(494.633437, 462.633437) rotate(29.000000) translate(-494.633437, -462.633437) " points="494.633437 451.133437 506.133437 474.133437 483.133437 474.133437"></polygon>
        </g>
        <g id="Code" transform="translate(429.000000, 51.000000)" fill-rule="nonzero">
            <rect id="Rectangle" fill="#E3E3E3" x="0" y="0" width="50" height="25" rx="9"></rect>
            <rect id="Rectangle" fill="#E3E3E3" x="31" y="63" width="47" height="25" rx="9"></rect>
            <rect id="Rectangle" fill="#3E81CE" x="84" y="63" width="41" height="25" rx="9"></rect>
            <rect id="Rectangle-Copy" fill="#FF7B7B" x="56" y="0" width="25" height="25" rx="9"></rect>
            <rect id="Rectangle-Copy" fill="#E3E3E3" x="87" y="0" width="60" height="25" rx="9"></rect>
            <rect id="Rectangle-Copy" fill="#FFD999" x="21" y="32" width="73" height="25" rx="9"></rect>
            <rect id="Rectangle-Copy" fill="#E3E3E3" x="100" y="32" width="47" height="25" rx="9"></rect>
            <rect id="Rectangle-Copy" fill="#9DF4E1" x="0" y="63" width="25" height="25" rx="9"></rect>
        </g>
    </g>
</svg>