<?xml version="1.0" encoding="UTF-8"?>
<svg width="476px" height="284px" viewBox="0 0 476 284" version="1.1" xmlns="http://www.w3.org/2000/svg" xmlns:xlink="http://www.w3.org/1999/xlink">
    <!-- Generator: Sketch 52.1 (67048) - http://www.bohemiancoding.com/sketch -->
    <title>029-storm-1</title>
    <desc>Created with Sketch.</desc>
    <g id="Page-1" stroke="none" stroke-width="1" fill="none" fill-rule="evenodd">
        <g id="029-storm-1" transform="translate(0.000000, -1.000000)">
            <path d="M402.324219,129.027344 L383.808594,129.027344 C381.378906,86.269531 344.742188,53.578125 301.988281,56.011719 C289.953125,56.695312 278.246094,60.175781 267.796875,66.171875 C248.265625,14.210938 190.308594,-12.078125 138.347656,7.453125 C99.136719,22.195312 73.175781,59.707031 73.203125,101.597656 L73.203125,129.027344 C32.808594,129.027344 0.0625,161.769531 0.0625,202.164062 L0.0625,211.304688 C0.0625,251.699219 32.808594,284.445312 73.203125,284.445312 L402.324219,284.445312 C442.714844,284.445312 475.460938,251.699219 475.460938,211.304688 L475.460938,202.164062 C475.460938,161.769531 442.714844,129.027344 402.324219,129.027344 Z" id="Path" fill="#B8EAEE"></path>
            <path d="M118.914062,110.742188 L100.62889,110.742188 C100.605469,73.207031 126,40.421875 162.347656,31.058594 L166.917969,48.757812 C138.652344,56.050781 118.90625,81.546875 118.914062,110.742188 Z" id="Path" fill="#A5D2D6"></path>
            <polygon id="Path" fill="#A5D2D6" points="374.894531 238.734375 411.464844 238.734375 411.464844 257.015625 374.894531 257.015625"></polygon>
            <polygon id="Path" fill="#A5D2D6" points="338.328125 238.734375 356.613281 238.734375 356.613281 257.015625 338.328125 257.015625"></polygon>
            <polygon id="Path" fill="#A5D2D6" points="91.488281 238.734375 128.054688 238.734375 128.054688 257.015625 91.488281 257.015625"></polygon>
            <polygon id="Path" fill="#A5D2D6" points="54.917969 238.734375 73.203125 238.734375 73.203125 257.015625 54.917969 257.015625"></polygon>
        </g>
    </g>
</svg>