<svg height="512pt" viewBox="0 -1 512.00004 512" width="512pt" xmlns="http://www.w3.org/2000/svg"><g fill="#fbd699"><path d="m179.148438 358.417969c-4.964844.003906-8.988282-4.015625-8.996094-8.980469 0-.785156.101562-1.566406.304687-2.324219l9.582031-35.949219c1.199219-4.816406 6.074219-7.746093 10.890626-6.546874 4.816406 1.203124 7.75 6.078124 6.546874 10.894531-.023437.097656-.046874.195312-.078124.289062l-9.585938 35.949219c-1.050781 3.925781-4.601562 6.65625-8.664062 6.667969zm0 0"/><path d="m312.519531 452.136719c-4.964843-.003907-8.980469-4.035157-8.976562-8.996094.003906-1.996094.667969-3.933594 1.894531-5.507813l55.921875-71.894531c2.917969-4.015625 8.535156-4.90625 12.554687-1.992187 4.015626 2.914062 4.910157 8.535156 1.992188 12.550781-.117188.160156-.238281.316406-.363281.46875l-55.925781 71.894531c-1.699219 2.195313-4.320313 3.476563-7.097657 3.476563zm0 0"/><path d="m260.613281 511.1875c-4.964843-.003906-8.984375-4.035156-8.976562-8.996094.003906-1.996094.667969-3.933594 1.894531-5.507812l24.957031-32.089844c2.914063-4.015625 8.53125-4.910156 12.550781-1.996094 4.015626 2.914063 4.910157 8.535156 1.992188 12.550782-.113281.160156-.238281.320312-.363281.472656l-24.957031 32.097656c-1.703126 2.191406-4.324219 3.472656-7.097657 3.46875zm0 0"/><path d="m188.71875 457.269531c-4.960938.003907-8.988281-4.015625-8.992188-8.980469-.003906-.785156.101563-1.566406.300782-2.324218l8.988281-33.699219c1.359375-4.773437 6.332031-7.539063 11.105469-6.179687 4.660156 1.328124 7.429687 6.113281 6.257812 10.816406l-8.988281 33.699218c-1.046875 3.929688-4.605469 6.664063-8.671875 6.667969zm0 0"/></g><path d="m53.917969 88.816406h8.988281c-.054688-24.753906 19.96875-44.867187 44.722656-44.925781 14.378906-.03125 27.898438 6.835937 36.355469 18.460937 2.789063-37.117187 35.140625-64.949218 72.261719-62.160156 34.761718 2.613282 61.796875 31.304688 62.339844 66.160156v22.464844c29.777343 0 53.917968 24.140625 53.917968 53.921875 0 29.777344-24.140625 53.917969-53.917968 53.917969h-224.667969c-29.777344 0-53.917969-24.140625-53.917969-53.917969 0-29.78125 24.140625-53.921875 53.917969-53.921875zm0 0" fill="#aedee2"/><path d="m457.140625 143.914062c-5.925781-31.917968-33.761719-55.074218-66.222656-55.097656h-5.390625c-24.753906-54.132812-88.699219-77.953125-142.832032-53.199218-38.398437 17.554687-63.007812 55.914062-62.960937 98.132812v8.988281h-4.496094c-37.222656 0-67.398437 30.175781-67.398437 67.398438 0 37.222656 30.175781 67.398437 67.398437 67.398437h269.597657c37.226562-.128906 67.292968-30.410156 67.164062-67.636718-.113281-32.296876-23.125-59.972657-54.859375-65.984376zm0 0" fill="#b8eaee"/><path d="m368.453125 232.605469h35.945313v17.972656h-35.945313zm0 0" fill="#a5d2d6"/><path d="m422.371094 232.605469h17.972656v17.972656h-17.972656zm0 0" fill="#a5d2d6"/><path d="m179.734375 232.605469h17.972656v17.972656h-17.972656zm0 0" fill="#a5d2d6"/><path d="m332.503906 340.441406h-54.484375l45.5-98.851562h-80.878906l-35.949219 134.800781h44.933594l-44.933594 125.8125zm0 0" fill="#fbb540"/></svg>